<svg width="64" height="64" viewBox="0 0 64 64" xmlns="http://www.w3.org/2000/svg"><style>.spinner_7WDj{transform-origin:center;animation:spinner_PBVY .75s linear infinite}@keyframes spinner_PBVY{100%{transform:rotate(360deg)}}</style><path d="M32 2.667a29.333 29.333 0 1 0 29.333 29.333A29.333 29.333 0 0 0 32 2.667m0 50.667a21.333 21.333 0 1 1 21.333 -21.333 21.333 21.333 0 0 1 -21.333 21.333" opacity=".25"/><path class="spinner_7WDj" cx="12" cy="2.5" r="1.5" d="M36 6.667A4 4 0 0 1 32 10.667A4 4 0 0 1 28 6.667A4 4 0 0 1 36 6.667z"/></svg>