<svg width="36" height="36" viewBox="0 0 36 36" xmlns="http://www.w3.org/2000/svg"><style>.spinner_7WDj{transform-origin:center;animation:spinner_PBVY .75s linear infinite}@keyframes spinner_PBVY{100%{transform:rotate(360deg)}}</style><path d="M18 1.5A16.5 16.5 0 1 0 34.5 18 16.5 16.5 0 0 0 18 1.5m0 28.5a12 12 0 1 1 12 -12A12 12 0 0 1 18 30" opacity=".25"/><path class="spinner_7WDj" cx="12" cy="2.5" r="1.5" d="M20.25 3.75a2.25 2.25 0 0 1 -2.25 2.25 2.25 2.25 0 0 1 -2.25 -2.25 2.25 2.25 0 0 1 4.5 0"/></svg>